<svg width="100" height="100" viewBox="0 0 100 100" fill="none" xmlns="http://www.w3.org/2000/svg">
<circle cx="50" cy="50" r="50" fill="#27272A"/>
<path d="M43.8343 77.1492C40.6943 77.1492 36.2984 76.8352 33.9006 75.8647C31.5028 74.8371 29.6473 73.1814 28.3343 70.8978C27.0212 68.6142 26.3646 65.5028 26.3646 61.5636V48.547C26.3646 46.5133 24.716 44.8647 22.6823 44.8647C20.6486 44.8647 19 43.216 19 41.1823V38.0494C19 35.9015 20.7412 34.1602 22.8891 34.1602C24.8685 34.1602 26.5322 32.6735 26.7538 30.7066L27.1285 27.3813C27.4738 24.3165 30.066 22 33.1502 22C36.4969 22 39.21 24.7232 39.21 28.0699C39.21 31.4279 41.9321 34.1602 45.2901 34.1602H59.4627C62.4187 34.1602 64.815 36.5565 64.815 39.5124C64.815 42.4684 62.4187 44.8647 59.4627 44.8647H49.4006C44.6711 44.8647 40.837 48.6987 40.837 53.4282V60.1078C40.837 61.8205 41.2081 63.0479 41.9503 63.7901C42.7496 64.4752 44.0912 64.8177 45.9752 64.8177C49.2385 64.8177 51.884 67.4632 51.884 70.7266V70.9835C51.884 74.3887 49.1235 77.1492 45.7182 77.1492H43.8343Z" fill="white"/>
<path d="M72.9502 77.1492C69.8103 77.1492 65.4143 76.8352 63.0165 75.8647C60.6187 74.8371 58.7633 73.1814 57.4502 70.8978C56.1372 68.6142 55.4806 65.5028 55.4806 61.5636V48.547C55.4806 46.5133 53.832 44.8647 51.7983 44.8647C49.7646 44.8647 48.116 43.216 48.116 41.1823V38.0494C48.116 35.9015 49.8572 34.1602 52.0051 34.1602C53.9845 34.1602 55.6481 32.6735 55.8698 30.7066L56.2444 27.3813C56.5898 24.3165 59.1819 22 62.2661 22C65.6129 22 68.3259 24.7131 68.3259 28.0598V28.8508C68.3259 31.7831 70.703 34.1602 73.6353 34.1602C76.5676 34.1602 78.9447 36.5373 78.9447 39.4696V40.3688C78.9447 42.8518 76.9319 44.8647 74.4489 44.8647C71.9659 44.8647 69.953 46.8775 69.953 49.3605V60.1078C69.953 61.8205 70.3241 63.0479 71.0663 63.7901C71.8655 64.4752 73.2071 64.8177 75.0911 64.8177C78.3545 64.8177 81 67.4632 81 70.7266V70.9835C81 74.3887 78.2395 77.1492 74.8342 77.1492H72.9502Z" fill="white"/>
</svg>
