<svg width="634" height="658" viewBox="0 0 634 658" fill="none" xmlns="http://www.w3.org/2000/svg">
<path d="M234.542 22.2969C271.11 17.3545 303.042 44.0519 326.215 83.2012C343.227 111.943 357.919 150.905 368.803 199.964C391.571 159.48 413.481 130.828 434.719 112.763C450.123 99.6593 466.341 91.1249 483.264 88.8242C500.66 86.4595 516.599 90.9895 530.247 100.096C556.024 117.295 573.702 150.723 585.786 186.934C598.223 224.201 606.182 268.881 609.669 313.896C613.159 358.958 612.233 405.224 606.435 445.812C600.744 485.654 589.966 522.93 571.635 547.566C562.224 560.214 549.873 570.785 534.051 575.416C517.93 580.134 501.156 577.823 484.839 570.098C463.678 560.08 441.615 540.206 418.296 510.237C412.271 537.801 402.193 561.479 389.35 580.669C368.123 612.387 338.147 633.259 306.096 635.446C272.548 637.735 242.735 619.163 225.265 584.405C214.749 563.482 208.535 536.673 207.536 504.088C186.78 524.858 166.254 540.439 146.731 550.905C114.521 568.174 80.2116 573.712 53.7722 557.159C26.6279 540.164 18.2317 506.683 22.8689 469.983C27.2945 434.958 43.773 391.954 74.116 342.772C64.6462 319.833 57.7503 299.051 54.0847 281.638C51.9795 271.637 50.774 261.987 51.0593 253.274C51.331 244.978 53.0285 234.884 59.2839 226.479C66.5455 216.724 77.3736 212.595 88.3289 213.002C98.0277 213.363 107.537 217.16 116.131 221.911C123.748 226.122 132.142 231.935 141.324 239.339C141.009 184.165 147.507 138.893 158.991 104.315C173.457 60.7572 198.593 27.1558 234.542 22.2969Z" fill="#DDDDDD" stroke="black" stroke-width="43.3726"/>
</svg>
