<svg preserveAspectRatio="xMidYMid meet" xmlns="http://www.w3.org/2000/svg">
    <symbol id="close" viewBox="0 0 20 20">
        <line x1="2" y1="2" x2="18" y2="18" fill="none" stroke="#000" stroke-miterlimit="10" stroke-width="1.5"/>
        <line x1="18" y1="2" x2="2" y2="18" fill="none" stroke="#000" stroke-miterlimit="10" stroke-width="1.5"/>
    </symbol>
    <symbol id="github" viewBox="0 0 64 64">
        <path d="M31.99793,0C14.3285,0,0,14.32673,0,32.00186c0,14.13677,9.16808,26.13071,21.88514,30.36272,1.60006,.29349,2.18407-.69443,2.18407-1.54249,0-.75965-.0277-2.77203-.04322-5.44251-8.90131,1.9338-10.77951-4.28957-10.77951-4.28957-1.45508-3.6967-3.55291-4.68089-3.55291-4.68089-2.90542-1.98547,.21982-1.9452,.21982-1.9452,3.2113,.2263,4.9015,3.29772,4.9015,3.29772,2.85454,4.8901,7.48946,3.47806,9.31286,2.65888,.29074-2.06798,1.11738-3.47806,2.03163-4.27798-7.10581-.80759-14.57602-3.5529-14.57602-15.81539,0-3.49338,1.24684-6.34989,3.29379-8.5868-.32905-.80955-1.42717-4.06307,.31372-8.46874,0,0,2.68678-.86043,8.79975,3.28043,2.55241-.70976,5.28987-1.06473,8.01122-1.07711,2.71742,.01238,5.45508,.36735,8.01122,1.07711,6.10924-4.14086,8.79111-3.28043,8.79111-3.28043,1.74581,4.40567,.64748,7.65919,.31844,8.46874,2.05088,2.23692,3.28927,5.09342,3.28927,8.5868,0,12.29313-7.4818,14.99818-14.61059,15.79044,1.14901,.98792,2.17248,2.94098,2.17248,5.92596,0,4.27798-.03929,7.72932-.03929,8.77853,0,.85571,.57637,1.8513,2.20038,1.53875,12.70468-4.23987,21.86512-16.22596,21.86512-30.35899C64,14.32673,49.67131,0,31.99793,0Z" fill-rule="evenodd"/>
    </symbol>
    <symbol id="linkedin" viewBox="0 0 64 64">
        <path d="M59.25866,.00041V.0044H4.72266C2.14514-.02466,.03145,2.03985,0,4.61737V59.37963c.03034,2.57864,2.14386,4.64538,4.72266,4.61791H59.25866c2.58391,.03241,4.70558-2.03417,4.74134-4.61791V4.61338C63.96312,2.03091,61.84129-.03359,59.25866,.00041M18.98036,54.53051H9.48763V23.99099h9.49273v30.53952ZM14.23902,19.81648c-3.03927,.00063-5.50343-2.46272-5.50391-5.502-.00064-3.03912,2.46272-5.50343,5.502-5.50391,3.03912-.00064,5.50343,2.46271,5.50391,5.50199,.00064,3.03928-2.46272,5.50344-5.502,5.50392M54.53106,54.53051h-9.48284v-14.85039c0-3.54128-.06323-8.09995-4.93198-8.09995-4.93901,0-5.69456,3.85837-5.69456,7.84209v15.10729h-9.48283V23.99099h9.10346v4.1734h.12742c1.8563-3.17388,5.30784-5.06945,8.98212-4.9331,9.6112,0,11.3832,6.32189,11.3832,14.54623l-.00399,16.75299Z"/>
    </symbol>
    <symbol id="mail" viewBox="0 0 64 64">
        <path d="M57.6,6.4H6.4C2.88,6.4,.032,9.28,.032,12.8l-.032,38.4c0,3.52,2.88,6.4,6.4,6.4H57.6c3.52,0,6.4-2.88,6.4-6.4V12.8c0-3.52-2.88-6.4-6.4-6.4Zm0,12.8l-25.6,16L6.4,19.2v-6.4l25.6,16L57.6,12.8v6.4Z"/>
    </symbol>
    <symbol id="twitter" viewBox="0 0 64 64">
        <path d="M20.12747,58.00679c24.15207,0,37.35953-20.00902,37.35953-37.35952,0-.56881-.01148-1.13492-.03763-1.69737,2.56351-1.85344,4.79254-4.16632,6.55064-6.79886-2.35275,1.04517-4.88468,1.74933-7.54048,2.06706,2.71065-1.62546,4.79189-4.19726,5.77346-7.26373-2.53736,1.50414-5.34652,2.59809-8.33744,3.18732-2.39562-2.55218-5.80836-4.14848-9.58443-4.14848-7.25177,0-13.13267,5.88044-13.13267,13.12981,0,1.03034,.11542,2.03264,.341,2.99379-10.9129-.54873-20.58995-5.77393-27.06502-13.71903-1.12902,1.94031-1.77851,4.19486-1.77851,6.60006,0,4.55547,2.31831,8.57673,5.84296,10.92948-2.15331-.06616-4.17701-.65825-5.94659-1.64268-.00287,.05468-.00287,.11-.00287,.16771,0,6.35964,4.52646,11.66871,10.53427,12.87282-1.10288,.30003-2.26348,.46185-3.46169,.46185-.84573,0-1.66835-.08386-2.46817-.2369,1.67122,5.21675,6.51843,9.0129,12.2667,9.12003-4.49537,3.52179-10.15627,5.62041-16.3082,5.62041-1.05983,0-2.10453-.06058-3.13232-.18158,5.8114,3.72409,12.71085,5.89781,20.12747,5.89781"/>
    </symbol>
    <symbol id="whatsapp" viewBox="0 0 64 64">
        <path d="M54.67371,9.30066C48.65747,3.30615,40.65649,.00342,32.13184,0,14.56763,0,.27246,14.22583,.2655,31.71143c-.00232,5.58954,1.46497,11.04523,4.25354,15.8548L-.00171,64l16.89282-4.4101c4.6543,2.52661,9.89478,3.85828,15.22803,3.86011h.01318c17.5625,0,31.85889-14.22729,31.86597-31.71326,.00342-8.47388-3.30811-16.44177-9.32458-22.4361Zm-22.54138,48.7934h-.01086c-4.75256-.00183-9.41394-1.27258-13.48059-3.67419l-.96704-.57123-10.02441,2.617,2.67554-9.72693-.62964-.99738c-2.65137-4.19672-4.05151-9.04724-4.04956-14.02789,.00586-14.53326,11.88745-26.35718,26.49707-26.35718,7.07434,.00238,13.72437,2.74786,18.7251,7.73029,5.00049,4.9823,7.75281,11.60504,7.75012,18.64819-.00598,14.53436-11.88745,26.35931-26.48572,26.35931Zm14.52795-19.7417c-.79614-.39661-4.71082-2.31335-5.4408-2.57806-.72974-.2644-1.2605-.39648-1.79138,.39655-.53064,.79321-2.05664,2.57831-2.52112,3.10718-.46436,.52869-.92896,.59509-1.7251,.1983-.79614-.39661-3.36182-1.23334-6.40308-3.93311-2.36694-2.10126-3.96497-4.69611-4.42944-5.4895-.46436-.79321-.04956-1.22198,.34912-1.61713,.35815-.35516,.79626-.92566,1.19434-1.38831,.39819-.46265,.53076-.7934,.79614-1.3219,.26538-.52905,.13281-.9917-.06628-1.38824-.1991-.39661-1.79138-4.29718-2.45496-5.88397-.64624-1.54492-1.30273-1.33569-1.7915-1.36023-.46387-.02295-.99524-.02789-1.526-.02789s-1.39343,.1983-2.12317,.99152c-.72998,.7934-2.78687,2.71057-2.78687,6.61072,0,3.90051,2.85303,7.66846,3.25122,8.19733,.39819,.52905,5.6145,8.53278,13.60181,11.96521,1.89966,.81647,3.38293,1.30408,4.53918,1.66919,1.90747,.60327,3.64319,.51813,5.01514,.31396,1.52979-.22736,4.71082-1.91675,5.37439-3.7677,.66333-1.85126,.66333-3.43787,.46436-3.76825-.19897-.33057-.72974-.52887-1.526-.92566Z" fill-rule="evenodd"/>
    </symbol>
</svg>