<svg width="671" height="143" viewBox="0 0 671 143" fill="none" xmlns="http://www.w3.org/2000/svg">
<path d="M0.400002 140V0H36.4L77.2 84.2L117.6 0H153.4V140H123.4V50.6L89 120.4H65L30.4 50.6V140H0.400002Z" fill="white"/>
<path d="M160.883 140L211.883 0H246.283L297.283 140H265.483L228.883 33.8L192.283 140H160.883ZM183.083 109.4L191.083 86.2H264.483L272.283 109.4H183.083Z" fill="white"/>
<path d="M392.419 140V0H422.419V140H392.419ZM304.619 140V0H334.619V140H304.619ZM330.819 80.6V56.4H397.219V80.6H330.819Z" fill="white"/>
<path d="M494.55 142.4C484.017 142.4 474.417 140.333 465.75 136.2C457.217 131.933 450.417 125.6 445.35 117.2C440.417 108.8 437.95 98.2 437.95 85.4V0H467.95V85.6C467.95 91.8667 468.95 97.2 470.95 101.6C473.083 106 476.15 109.333 480.15 111.6C484.283 113.733 489.217 114.8 494.95 114.8C500.817 114.8 505.75 113.733 509.75 111.6C513.883 109.333 517.017 106 519.15 101.6C521.283 97.2 522.35 91.8667 522.35 85.6V0H552.35V85.4C552.35 98.2 549.683 108.8 544.35 117.2C539.15 125.6 532.15 131.933 523.35 136.2C514.683 140.333 505.083 142.4 494.55 142.4Z" fill="white"/>
<path d="M600.222 140V24.2H559.622V0H670.822V24.2H630.222V140H600.222Z" fill="white"/>
</svg>
