<svg width="704" height="143" viewBox="0 0 704 143" fill="none" xmlns="http://www.w3.org/2000/svg">
<path d="M164.8 0V141H125.6V63.2L99 141H66.2L39.4 62.6V141H0.199951V0H47.6L83 91.6L117.6 0H164.8Z" fill="white"/>
<path d="M268.314 118H218.314L210.714 141H169.514L220.914 0H266.114L317.314 141H275.914L268.314 118ZM258.514 88L243.314 42.4L228.314 88H258.514Z" fill="white"/>
<path d="M448.291 0V141H409.091V84.4H361.291V141H322.091V0H361.291V53H409.091V0H448.291Z" fill="white"/>
<path d="M501.123 0V81.8C501.123 89.4 502.857 95.2667 506.323 99.4C509.923 103.533 515.323 105.6 522.523 105.6C529.723 105.6 535.123 103.533 538.723 99.4C542.457 95.1333 544.323 89.2667 544.323 81.8V0H583.523V81.8C583.523 94.7333 580.79 105.8 575.323 115C569.857 124.067 562.39 130.933 552.923 135.6C543.59 140.133 533.19 142.4 521.723 142.4C510.257 142.4 499.99 140.133 490.923 135.6C481.99 130.933 474.923 124.067 469.723 115C464.657 105.933 462.123 94.8667 462.123 81.8V0H501.123Z" fill="white"/>
<path d="M703.306 0V31.2H665.706V141H626.506V31.2H589.306V0H703.306Z" fill="white"/>
</svg>
