<svg width="192" height="198" viewBox="0 0 192 198" fill="none" xmlns="http://www.w3.org/2000/svg">
<path d="M23.5 101.256C49.5 95.7401 64.5 134 31.5004 143.5C4.5 148 20.0008 171.499 37.0004 152.5C54 133.5 80.5 148.5 66.5004 175.5C42 207 105.5 203 78.5004 175.5C74 158.5 118 134 153.5 154.5C197 183.5 206.5 165 160 147C134 135.5 137.5 95 164 95C205 95 197 66 162 83.5C134 95 135 47 153.5 36.4999C219.5 2.5 173 -22 148 30.4999C130 59.5 91.9056 52.9999 94.5004 32.4999C99.5 -7.00006 75 -1.50006 84.0004 32.4999C89 57.4999 55 67.9999 40.0004 54.4999C20.5 31.4999 5.28929 51.5 31.5004 66C55 79 32.5825 100 23.5 94.7562C-0.499994 80.5 -13 109 23.5 101.256Z" fill="#EF4444"/>
</svg>
