<svg width="948" height="192" viewBox="0 0 948 192" fill="none" xmlns="http://www.w3.org/2000/svg">
<path d="M38.2 192C30.6 184.267 23.9333 175.4 18.2 165.4C12.4667 155.533 8 144.8 4.8 133.2C1.6 121.467 0 109.2 0 96.4001C0 83.4667 1.6 71.2001 4.8 59.6001C8 48.0001 12.4667 37.2001 18.2 27.2001C23.9333 17.2001 30.6 8.40005 38.2 0.800049H68V3.60005C60 12.2667 53.1333 21.6001 47.4 31.6001C41.6667 41.6001 37.2 52.0667 34 63.0001C30.9333 73.9334 29.4 85.0667 29.4 96.4001C29.4 107.733 30.9333 118.867 34 129.8C37.2 140.733 41.6667 151.2 47.4 161.2C53.1333 171.2 60 180.533 68 189.2V192H38.2Z" fill="white"/>
<path d="M109.613 163V47.2H69.0125V23H180.213V47.2H139.613V163H109.613Z" fill="white"/>
<path d="M276.692 163V23H306.692V163H276.692ZM188.892 163V23H218.892V163H188.892ZM215.092 103.6V79.4001H281.492V103.6H215.092Z" fill="white"/>
<path d="M388.623 165.4C374.89 165.4 362.823 162.333 352.423 156.2C342.023 150.067 333.823 141.6 327.823 130.8C321.957 119.867 319.023 107.267 319.023 93.0001C319.023 78.7334 321.957 66.2001 327.823 55.4C333.823 44.4667 342.023 35.9334 352.423 29.8001C362.823 23.6667 374.89 20.6001 388.623 20.6001C402.357 20.6001 414.49 23.6667 425.023 29.8001C435.557 35.9334 443.69 44.4667 449.423 55.4C455.29 66.2001 458.223 78.7334 458.223 93.0001C458.223 107.267 455.29 119.867 449.423 130.8C443.69 141.6 435.557 150.067 425.023 156.2C414.49 162.333 402.357 165.4 388.623 165.4ZM388.623 138.4C396.757 138.4 403.69 136.533 409.423 132.8C415.29 129.067 419.823 123.867 423.023 117.2C426.223 110.4 427.823 102.333 427.823 93.0001C427.823 83.6667 426.223 75.6667 423.023 69.0001C419.823 62.2001 415.29 57.0001 409.423 53.4001C403.69 49.6667 396.757 47.8001 388.623 47.8001C380.757 47.8001 373.89 49.6667 368.023 53.4001C362.157 57.0001 357.623 62.2001 354.423 69.0001C351.223 75.6667 349.623 83.6667 349.623 93.0001C349.623 102.333 351.223 110.4 354.423 117.2C357.623 123.867 362.157 129.067 368.023 132.8C373.89 136.533 380.757 138.4 388.623 138.4Z" fill="white"/>
<path d="M470.65 163V23H506.65L547.45 107.2L587.85 23H623.65V163H593.65V73.6001L559.25 143.4H535.25L500.65 73.6001V163H470.65Z" fill="white"/>
<path d="M631.133 163L682.133 23H716.533L767.533 163H735.733L699.133 56.8001L662.533 163H631.133ZM653.333 132.4L661.333 109.2H734.733L742.533 132.4H653.333Z" fill="white"/>
<path d="M824.069 165.4C814.069 165.4 805.002 163.733 796.869 160.4C788.869 156.933 782.535 151.867 777.869 145.2C773.202 138.533 770.669 130.333 770.269 120.6H802.269C802.402 124.467 803.402 127.867 805.269 130.8C807.135 133.733 809.669 136.067 812.869 137.8C816.069 139.4 819.802 140.2 824.069 140.2C827.669 140.2 830.802 139.667 833.469 138.6C836.269 137.4 838.469 135.733 840.069 133.6C841.669 131.333 842.469 128.533 842.469 125.2C842.469 121.733 841.535 118.8 839.669 116.4C837.802 113.867 835.269 111.733 832.069 110C828.869 108.133 825.135 106.467 820.869 105C816.735 103.4 812.269 101.867 807.469 100.4C796.402 96.8001 787.869 91.9334 781.869 85.8001C776.002 79.6667 773.069 71.4667 773.069 61.2001C773.069 52.6667 775.135 45.4001 779.269 39.4001C783.535 33.2667 789.335 28.6001 796.669 25.4001C804.002 22.2001 812.335 20.6001 821.669 20.6001C831.269 20.6001 839.735 22.2667 847.069 25.6001C854.402 28.8001 860.202 33.5334 864.469 39.8C868.735 45.9334 871.002 53.2667 871.269 61.8H839.069C838.935 58.8667 838.069 56.2001 836.469 53.8001C835.002 51.4001 832.935 49.4667 830.269 48C827.735 46.5334 824.735 45.8001 821.269 45.8001C818.202 45.6667 815.402 46.1334 812.869 47.2C810.469 48.1334 808.469 49.6667 806.869 51.8C805.402 53.8001 804.669 56.3334 804.669 59.4001C804.669 62.3334 805.402 64.9334 806.869 67.2001C808.469 69.3334 810.602 71.2 813.269 72.8C816.069 74.2667 819.269 75.6667 822.869 77.0001C826.602 78.3334 830.669 79.6667 835.069 81.0001C842.135 83.4001 848.602 86.2667 854.469 89.6001C860.469 92.8001 865.269 97.0667 868.869 102.4C872.602 107.6 874.469 114.533 874.469 123.2C874.469 130.8 872.469 137.8 868.469 144.2C864.602 150.6 858.935 155.733 851.469 159.6C844.135 163.467 835.002 165.4 824.069 165.4Z" fill="white"/>
<path d="M909.334 192H879.534V189.2C887.534 180.533 894.401 171.2 900.134 161.2C905.868 151.2 910.268 140.733 913.334 129.8C916.534 118.867 918.134 107.733 918.134 96.4001C918.134 85.0667 916.534 73.9334 913.334 63.0001C910.268 52.0667 905.868 41.6001 900.134 31.6001C894.401 21.6001 887.534 12.2667 879.534 3.60005V0.800049H909.334C916.934 8.40005 923.601 17.2001 929.334 27.2001C935.068 37.2001 939.534 48.0001 942.734 59.6001C945.934 71.2001 947.534 83.4667 947.534 96.4001C947.534 109.2 945.934 121.467 942.734 133.2C939.534 144.8 935.068 155.533 929.334 165.4C923.601 175.4 916.934 184.267 909.334 192Z" fill="white"/>
</svg>
