<svg width="993" height="225" viewBox="0 0 993 225" fill="none" xmlns="http://www.w3.org/2000/svg">
<path d="M41.4 224.8C28.6 212.533 18.5333 196.533 11.2 176.8C3.86662 157.067 0.199951 135.8 0.199951 113C0.199951 89.9333 3.86662 68.4666 11.2 48.5999C18.6666 28.6 29 12.4666 42.2 0.199951H80.6V3.79995C67 17.5333 56.4 34.0666 48.8 53.4C41.3333 72.6 37.6 92.4666 37.6 113C37.6 133.267 41.2666 152.933 48.6 172C56.0666 191.067 66.4 207.467 79.6 221.2V224.8H41.4Z" fill="white"/>
<path d="M189.345 40V71.2H151.745V181H112.545V71.2H75.3453V40H189.345Z" fill="white"/>
<path d="M322.048 40V181H282.848V124.4H235.048V181H195.848V40H235.048V93H282.848V40H322.048Z" fill="white"/>
<path d="M404.081 182.4C390.881 182.4 378.748 179.333 367.681 173.2C356.615 166.933 347.815 158.333 341.281 147.4C334.881 136.333 331.681 123.867 331.681 110C331.681 96.1333 334.881 83.7333 341.281 72.8C347.815 61.7333 356.615 53.1333 367.681 47C378.748 40.8666 390.881 37.8 404.081 37.8C417.415 37.8 429.548 40.8666 440.481 47C451.548 53.1333 460.281 61.7333 466.681 72.8C473.081 83.7333 476.281 96.1333 476.281 110C476.281 123.867 473.081 136.333 466.681 147.4C460.281 158.333 451.548 166.933 440.481 173.2C429.415 179.333 417.281 182.4 404.081 182.4ZM404.081 146C414.081 146 421.948 142.733 427.681 136.2C433.548 129.667 436.481 120.933 436.481 110C436.481 98.8 433.548 90 427.681 83.6C421.948 77.0666 414.081 73.8 404.081 73.8C393.948 73.8 386.015 77.0666 380.281 83.6C374.548 90 371.681 98.8 371.681 110C371.681 121.067 374.548 129.867 380.281 136.4C386.015 142.8 393.948 146 404.081 146Z" fill="white"/>
<path d="M650.503 40V181H611.303V103.2L584.703 181H551.903L525.103 102.6V181H485.903V40H533.303L568.703 131.6L603.303 40H650.503Z" fill="white"/>
<path d="M754.017 158H704.017L696.417 181H655.217L706.617 40H751.817L803.017 181H761.617L754.017 158ZM744.217 128L729.017 82.4L714.017 128H744.217Z" fill="white"/>
<path d="M860.994 182.4C844.594 182.4 831.127 178.533 820.594 170.8C810.06 162.933 804.394 151.733 803.594 137.2H845.394C845.794 142.133 847.26 145.733 849.794 148C852.327 150.267 855.594 151.4 859.594 151.4C863.194 151.4 866.127 150.533 868.394 148.8C870.794 146.933 871.994 144.4 871.994 141.2C871.994 137.067 870.06 133.867 866.194 131.6C862.327 129.333 856.06 126.8 847.394 124C838.194 120.933 830.727 118 824.994 115.2C819.394 112.267 814.46 108.067 810.194 102.6C806.06 97 803.994 89.7333 803.994 80.7999C803.994 71.7333 806.26 64 810.794 57.6C815.327 51.0666 821.594 46.1333 829.594 42.7999C837.594 39.4666 846.66 37.8 856.794 37.8C873.194 37.8 886.26 41.6666 895.994 49.3999C905.86 57 911.127 67.7333 911.794 81.6H869.194C869.06 77.3333 867.727 74.1333 865.194 72C862.794 69.8666 859.66 68.7999 855.794 68.7999C852.86 68.7999 850.46 69.6666 848.594 71.4C846.727 73.1333 845.794 75.6 845.794 78.7999C845.794 81.4666 846.794 83.8 848.794 85.8C850.927 87.6666 853.527 89.3333 856.594 90.7999C859.66 92.1333 864.194 93.8666 870.194 96C879.127 99.0666 886.46 102.133 892.194 105.2C898.06 108.133 903.06 112.333 907.194 117.8C911.46 123.133 913.594 129.933 913.594 138.2C913.594 146.6 911.46 154.133 907.194 160.8C903.06 167.467 896.994 172.733 888.994 176.6C881.127 180.467 871.794 182.4 860.994 182.4Z" fill="white"/>
<path d="M913.017 224.8V221.2C926.217 207.467 936.484 191.067 943.817 172C951.284 152.933 955.017 133.267 955.017 113C955.017 92.4666 951.217 72.6 943.617 53.4C936.15 34.0666 925.617 17.5333 912.017 3.79995V0.199951H950.417C963.617 12.4666 973.884 28.6 981.217 48.5999C988.684 68.4666 992.417 89.9333 992.417 113C992.417 135.8 988.75 157.067 981.417 176.8C974.084 196.533 964.017 212.533 951.217 224.8H913.017Z" fill="white"/>
</svg>
