<svg width="569" height="559" viewBox="0 0 569 559" fill="none" xmlns="http://www.w3.org/2000/svg">
<path d="M346.634 31.0264C372.366 21.9153 398.526 22.6189 423.284 36.6543C446.714 49.9366 466.319 73.7265 483.768 105.303C501.382 137.178 518.059 179.315 534.494 232.369C554.476 296.871 541.353 371.486 502.592 420.491C482.89 445.4 455.946 464.365 422.846 470.763C400.292 475.122 376.197 473.391 351.2 465.125C350.969 465.788 350.727 466.448 350.475 467.105C344.945 481.493 334.99 492.572 323.666 500.933C301.689 517.158 271.237 525.637 242.317 529.82C212.74 534.099 181.446 534.341 155.202 531.814C142.071 530.55 129.711 528.546 119.157 525.803C109.415 523.27 98.2871 519.395 90.0342 512.819C66.1729 493.807 51.3083 463.746 41.8906 432.354C32.3053 400.404 27.3944 363.806 25.6992 327.945C23.9986 291.97 25.495 255.876 29.1494 224.585C32.7416 193.827 38.6293 165.83 46.6074 147.008C64.25 105.386 96.5877 80.2253 140.311 69.4131C179.55 59.7097 227.794 61.5142 283.462 71.0059C304.285 52.8181 325.289 38.5842 346.634 31.0264ZM211.117 414.115C206.454 407.004 197.62 405.304 192.575 408.721C192.367 408.974 192.158 409.242 191.95 409.527C190.644 411.322 189.339 413.868 188.767 417.092C188.337 419.514 188.406 421.852 188.818 423.963C189.712 424.918 190.96 425.969 192.614 427.268L192.949 427.517C197.444 430.696 205.378 429.737 209.953 426.4C210.541 425.707 211.087 424.949 211.575 424.124C211.889 422.767 212.306 420.059 211.723 416.66C211.567 415.753 211.358 414.904 211.117 414.115Z" fill="white" stroke="black" stroke-width="50"/>
</svg>
