<svg width="77" height="90" viewBox="0 0 77 90" fill="none" xmlns="http://www.w3.org/2000/svg">
<mask id="path-1-outside-1_524_20" maskUnits="userSpaceOnUse" x="-0.848145" y="-0.12793" width="77" height="90" fill="black">
<rect fill="white" x="-0.848145" y="-0.12793" width="77" height="90"/>
<path d="M27.4519 11.5721L55.0519 5.87207L68.4519 60.6721L65.6519 61.4721L69.7519 74.9721L41.4519 82.7721L38.4519 63.7721L35.1519 64.1721L34.5519 70.4721L9.45186 79.5721L6.15186 78.1721L27.4519 11.5721ZM36.8519 45.2721L35.6519 57.5721L37.8519 57.4721L36.8519 45.2721Z"/>
</mask>
<path d="M27.4519 11.5721L55.0519 5.87207L68.4519 60.6721L65.6519 61.4721L69.7519 74.9721L41.4519 82.7721L38.4519 63.7721L35.1519 64.1721L34.5519 70.4721L9.45186 79.5721L6.15186 78.1721L27.4519 11.5721ZM36.8519 45.2721L35.6519 57.5721L37.8519 57.4721L36.8519 45.2721Z" fill="white"/>
<path d="M27.4519 11.5721L55.0519 5.87207L68.4519 60.6721L65.6519 61.4721L69.7519 74.9721L41.4519 82.7721L38.4519 63.7721L35.1519 64.1721L34.5519 70.4721L9.45186 79.5721L6.15186 78.1721L27.4519 11.5721ZM36.8519 45.2721L35.6519 57.5721L37.8519 57.4721L36.8519 45.2721Z" stroke="black" stroke-width="10" mask="url(#path-1-outside-1_524_20)"/>
</svg>
