<svg width="432" height="597" viewBox="0 0 432 597" fill="none" xmlns="http://www.w3.org/2000/svg">
<path d="M117.321 29.7041C141.648 20.2157 168.405 25.494 189.697 42.1445C203.891 53.2437 215.505 69.1115 223.637 88.9883C244.378 80.2939 265.67 76.3621 285.412 76.083C313.997 75.6789 342.176 82.9571 361.21 97.8867C370.929 105.51 379.618 116.285 382.667 130.271C385.839 144.824 382.076 159.06 373.777 171.255C365.347 183.643 351.834 194.668 333.637 204.447C381.645 241.593 403.252 305.493 406.417 364.42C408.562 404.353 402.694 445.086 389.372 479.651C376.215 513.788 354.566 544.844 323.027 560.51C291.155 576.342 254.303 573.966 220.979 561.705C187.446 549.368 155.02 526.263 129.368 496.3C83.1055 442.261 56.8016 362.889 89.1084 280.021C69.9124 272.887 54.9048 262.787 44.0938 250.41C27.9468 231.925 22.4575 209.656 26.0615 189.886C29.4932 171.061 42.2543 151.734 64.2285 146.266C65.376 145.98 66.5199 145.74 67.6582 145.542C64.7748 125.088 65.4055 106.627 69.1631 90.4365C75.8892 61.4565 93.0382 39.1757 117.321 29.7041Z" fill="white" stroke="black" stroke-width="50"/>
</svg>
