<svg width="631" height="733" viewBox="0 0 631 733" fill="none" xmlns="http://www.w3.org/2000/svg">
<path d="M137.206 25.3457C162.205 22.7636 184.385 35.2315 201.941 52.7207C219.656 70.3684 235.504 95.725 249.108 126.452C262.898 157.597 274.946 195.552 284.324 239.306C289.955 227.331 296.265 216.444 303.195 206.654C332.289 165.558 372.352 144.049 415.415 144.697C500.462 145.978 577.375 230.525 599.417 359.655C609.392 418.094 606.43 469.51 594.85 510.472C583.451 550.791 562.87 583.54 535.324 600.415C521.229 609.05 505.131 613.55 488.29 611.913C471.451 610.276 455.915 602.705 442.569 590.672C439.86 588.229 437.23 585.592 434.677 582.766C427.728 608.246 416.252 630.037 400.867 648.109C365.116 690.108 312.217 707.361 260.027 707.721C207.855 708.081 153.575 691.727 111.023 662.937C68.5115 634.172 35.1919 591.052 31.3408 537.343C19.1978 367.986 25.3372 245.534 42.6143 163.771C51.2303 122.995 62.9223 90.825 77.627 67.8066C92.2651 44.8924 112.073 27.9418 137.206 25.3457Z" fill="white" stroke="black" stroke-width="50"/>
</svg>
