<svg width="81" height="88" viewBox="0 0 81 88" fill="none" xmlns="http://www.w3.org/2000/svg">
<mask id="path-1-outside-1_524_19" maskUnits="userSpaceOnUse" x="-0.53833" y="-0.850952" width="81" height="89" fill="black">
<rect fill="white" x="-0.53833" y="-0.850952" width="81" height="89"/>
<path d="M15.6617 16.949L41.1617 11.049L35.7617 54.349L38.5617 53.949L45.0617 10.049L69.1617 5.14905L74.8617 6.84904C69.7617 41.549 67.5617 59.349 68.0617 60.249C68.3617 62.149 69.3617 65.749 71.2617 71.049L36.5617 76.9491L37.2617 67.549L34.4617 67.849L33.0617 77.249L9.06167 82.149L5.46167 79.849L15.6617 16.949Z"/>
</mask>
<path d="M15.6617 16.949L41.1617 11.049L35.7617 54.349L38.5617 53.949L45.0617 10.049L69.1617 5.14905L74.8617 6.84904C69.7617 41.549 67.5617 59.349 68.0617 60.249C68.3617 62.149 69.3617 65.749 71.2617 71.049L36.5617 76.9491L37.2617 67.549L34.4617 67.849L33.0617 77.249L9.06167 82.149L5.46167 79.849L15.6617 16.949Z" fill="white"/>
<path d="M15.6617 16.949L41.1617 11.049L35.7617 54.349L38.5617 53.949L45.0617 10.049L69.1617 5.14905L74.8617 6.84904C69.7617 41.549 67.5617 59.349 68.0617 60.249C68.3617 62.149 69.3617 65.749 71.2617 71.049L36.5617 76.9491L37.2617 67.549L34.4617 67.849L33.0617 77.249L9.06167 82.149L5.46167 79.849L15.6617 16.949Z" stroke="black" stroke-width="10" mask="url(#path-1-outside-1_524_19)"/>
</svg>
