<svg width="676" height="569" viewBox="0 0 676 569" fill="none" xmlns="http://www.w3.org/2000/svg">
<path d="M544.096 25.002C562.574 24.8636 578.731 31.4907 591.969 42.502C616.952 63.2817 631.312 99.3055 639.605 136.852C648.159 175.58 651.354 221.1 650.193 266.471C649.03 311.918 643.472 358.175 634.001 398.55C624.703 438.193 610.995 474.985 591.821 499.163C582.09 511.433 569.501 522.285 553.567 527.016C536.793 531.996 519.795 529.164 504.189 520.27C484.508 509.052 465.964 487.641 447.998 456.756C435.18 481.207 421.036 500.499 405.814 514.67C380.875 537.887 351.802 548.195 322.616 541.819C294.426 535.661 271.858 515.149 256.046 489.018C248.89 477.19 242.831 463.789 237.994 449.117C213.836 479.25 189.152 501.59 165.33 516.277C131.057 537.409 93.1547 545.493 62.9028 528.054C31.8654 510.161 21.5652 472.99 25.9312 432.519C30.053 394.311 47.2982 347.479 79.854 294.117C70.5906 275.457 65.0992 256.467 63.1079 238.779C60.6893 217.296 63.2008 195.188 73.3716 178.187C78.6279 169.4 86.2907 161.469 96.7222 156.684C107.309 151.827 118.842 151.092 130.108 153.648C144.102 156.824 157.794 165.022 171.096 177.103C192.463 151.838 211.957 131.485 230.109 116.252C253.027 97.0186 276.296 83.8085 300.633 81.6045C326.422 79.269 348.396 89.6451 367.021 106.835C377.292 116.315 386.986 128.242 396.394 142.104C430.766 93.4314 461.948 60.8789 490.546 42.7861C508.136 31.6578 526.104 25.1367 544.096 25.002Z" fill="white" stroke="black" stroke-width="50"/>
</svg>
