<svg width="94" height="88" viewBox="0 0 94 88" fill="none" xmlns="http://www.w3.org/2000/svg">
<mask id="path-1-outside-1_524_21" maskUnits="userSpaceOnUse" x="-0.202881" y="-0.771973" width="95" height="89" fill="black">
<rect fill="white" x="-0.202881" y="-0.771973" width="95" height="89"/>
<path d="M22.0971 18.828L46.7971 13.228L49.7971 14.228L47.4971 47.028L53.4971 13.328L84.5971 5.22803L88.4971 6.62803C84.5971 34.728 82.7971 52.428 83.0971 59.928C83.7971 62.828 84.7971 65.628 86.1971 68.528L55.2971 75.528L52.4971 74.428L54.1971 56.428L50.9971 62.728L37.4971 65.028L36.8971 57.328L34.5971 75.228L10.1971 82.228L5.79712 79.528L22.0971 18.828Z"/>
</mask>
<path d="M22.0971 18.828L46.7971 13.228L49.7971 14.228L47.4971 47.028L53.4971 13.328L84.5971 5.22803L88.4971 6.62803C84.5971 34.728 82.7971 52.428 83.0971 59.928C83.7971 62.828 84.7971 65.628 86.1971 68.528L55.2971 75.528L52.4971 74.428L54.1971 56.428L50.9971 62.728L37.4971 65.028L36.8971 57.328L34.5971 75.228L10.1971 82.228L5.79712 79.528L22.0971 18.828Z" fill="white"/>
<path d="M22.0971 18.828L46.7971 13.228L49.7971 14.228L47.4971 47.028L53.4971 13.328L84.5971 5.22803L88.4971 6.62803C84.5971 34.728 82.7971 52.428 83.0971 59.928C83.7971 62.828 84.7971 65.628 86.1971 68.528L55.2971 75.528L52.4971 74.428L54.1971 56.428L50.9971 62.728L37.4971 65.028L36.8971 57.328L34.5971 75.228L10.1971 82.228L5.79712 79.528L22.0971 18.828Z" stroke="black" stroke-width="10" mask="url(#path-1-outside-1_524_21)"/>
</svg>
