<svg width="421" height="557" viewBox="0 0 421 557" fill="none" xmlns="http://www.w3.org/2000/svg">
<path d="M108.848 30.5146C150.496 14.2122 197.195 36.4178 222.575 83.8496C237.254 77.4346 252.934 74.8983 267.698 75.0752C292.896 75.3772 318.339 83.544 336.63 97.4619C354.718 111.226 371.084 135.94 359.541 165.156C353.899 179.437 342.545 191.471 326.768 201.626C373.827 240.625 394.899 297.749 395.567 352.209C396.389 419.247 366.109 489.26 307.124 518.56C246.855 548.497 170.368 524.406 123.404 474.223C82.6892 430.718 62.06 366.412 85.0481 293.638C72.1746 293.698 60.5667 291.111 50.6106 285.277C26.3425 271.058 22.7517 244.932 25.9534 225.737C29.174 206.429 39.731 186.895 54.259 173.621C58.7523 169.516 64.1292 165.64 70.1575 162.605C61.002 136.549 58.3554 112.891 61.7288 92.2832C66.6015 62.5166 84.1069 40.1992 108.848 30.5146Z" fill="white" stroke="black" stroke-width="50"/>
</svg>
