<svg width="78" height="88" viewBox="0 0 78 88" fill="none" xmlns="http://www.w3.org/2000/svg">
<mask id="path-1-outside-1_524_17" maskUnits="userSpaceOnUse" x="-0.303223" y="-0.660156" width="79" height="88" fill="black">
<rect fill="white" x="-0.303223" y="-0.660156" width="79" height="88"/>
<path d="M12.4968 18.6398L66.7968 5.33984L71.8968 8.33984L64.0968 34.4398L47.1968 38.5398C44.0968 56.6398 42.6968 66.5398 42.8968 68.2398C44.3968 71.6398 45.7968 74.3398 47.0968 76.2398C31.0968 80.7398 21.8968 82.7398 19.5968 82.2398C17.8968 81.8398 17.1968 80.0398 17.4968 76.8398L23.6968 43.3398L8.19678 46.7398L5.69678 44.9398L12.4968 18.6398Z"/>
</mask>
<path d="M12.4968 18.6398L66.7968 5.33984L71.8968 8.33984L64.0968 34.4398L47.1968 38.5398C44.0968 56.6398 42.6968 66.5398 42.8968 68.2398C44.3968 71.6398 45.7968 74.3398 47.0968 76.2398C31.0968 80.7398 21.8968 82.7398 19.5968 82.2398C17.8968 81.8398 17.1968 80.0398 17.4968 76.8398L23.6968 43.3398L8.19678 46.7398L5.69678 44.9398L12.4968 18.6398Z" fill="white"/>
<path d="M12.4968 18.6398L66.7968 5.33984L71.8968 8.33984L64.0968 34.4398L47.1968 38.5398C44.0968 56.6398 42.6968 66.5398 42.8968 68.2398C44.3968 71.6398 45.7968 74.3398 47.0968 76.2398C31.0968 80.7398 21.8968 82.7398 19.5968 82.2398C17.8968 81.8398 17.1968 80.0398 17.4968 76.8398L23.6968 43.3398L8.19678 46.7398L5.69678 44.9398L12.4968 18.6398Z" stroke="black" stroke-width="10" mask="url(#path-1-outside-1_524_17)"/>
</svg>
