<svg width="484" height="577" viewBox="0 0 484 577" fill="none" xmlns="http://www.w3.org/2000/svg">
<path d="M318.63 27.9824C357.91 18.4767 396.415 31.7447 422.77 67.3584C447.972 101.417 460.903 153.98 458.732 223.164C453.108 402.435 338.996 517.821 227.991 545.084C172.562 558.697 115.055 550.669 74.5898 512.878C33.8997 474.877 16.4261 412.422 28.9902 330.021C38.117 270.162 52.7634 224.002 70.292 191.234C87.1169 159.782 109.499 135.484 136.732 129.95C151.303 126.989 165.668 129.868 177.948 138.007C184.656 142.452 190.337 148.183 195.109 154.733C202.252 137.372 210.468 121.571 219.521 107.435C246.105 65.9278 281.129 37.0576 318.63 27.9824Z" fill="white" stroke="black" stroke-width="50"/>
</svg>
