<svg width="75" height="88" viewBox="0 0 75 88" fill="none" xmlns="http://www.w3.org/2000/svg">
<mask id="path-1-outside-1_524_18" maskUnits="userSpaceOnUse" x="-0.753418" y="-0.445435" width="76" height="88" fill="black">
<rect fill="white" x="-0.753418" y="-0.445435" width="76" height="88"/>
<path d="M15.3466 18.0546L34.2466 12.7546L38.1466 13.4546C34.6466 44.1546 32.9466 59.8546 32.9466 60.7546C32.9466 61.2546 33.0466 61.5546 33.1466 61.5546C33.7466 61.5546 34.5466 61.3546 35.4466 61.0546L41.2466 11.8546L66.2466 5.55457L69.3466 8.75457C64.5466 42.6546 62.2466 60.4546 62.4466 62.0546C62.7466 64.3546 64.1466 67.7546 66.6466 72.2546C35.5466 78.1546 18.4466 81.4546 15.5466 82.2546C14.8466 82.4546 14.1466 82.5546 13.5466 82.5546C10.6466 82.5546 7.84658 80.4546 5.24658 76.1546L15.3466 18.0546Z"/>
</mask>
<path d="M15.3466 18.0546L34.2466 12.7546L38.1466 13.4546C34.6466 44.1546 32.9466 59.8546 32.9466 60.7546C32.9466 61.2546 33.0466 61.5546 33.1466 61.5546C33.7466 61.5546 34.5466 61.3546 35.4466 61.0546L41.2466 11.8546L66.2466 5.55457L69.3466 8.75457C64.5466 42.6546 62.2466 60.4546 62.4466 62.0546C62.7466 64.3546 64.1466 67.7546 66.6466 72.2546C35.5466 78.1546 18.4466 81.4546 15.5466 82.2546C14.8466 82.4546 14.1466 82.5546 13.5466 82.5546C10.6466 82.5546 7.84658 80.4546 5.24658 76.1546L15.3466 18.0546Z" fill="white"/>
<path d="M15.3466 18.0546L34.2466 12.7546L38.1466 13.4546C34.6466 44.1546 32.9466 59.8546 32.9466 60.7546C32.9466 61.2546 33.0466 61.5546 33.1466 61.5546C33.7466 61.5546 34.5466 61.3546 35.4466 61.0546L41.2466 11.8546L66.2466 5.55457L69.3466 8.75457C64.5466 42.6546 62.2466 60.4546 62.4466 62.0546C62.7466 64.3546 64.1466 67.7546 66.6466 72.2546C35.5466 78.1546 18.4466 81.4546 15.5466 82.2546C14.8466 82.4546 14.1466 82.5546 13.5466 82.5546C10.6466 82.5546 7.84658 80.4546 5.24658 76.1546L15.3466 18.0546Z" stroke="black" stroke-width="10" mask="url(#path-1-outside-1_524_18)"/>
</svg>
